<?xml version="1.0" standalone="no"?>
<!DOCTYPE svg PUBLIC "-//W3C//DTD SVG 20010904//EN"
 "http://www.w3.org/TR/2001/REC-SVG-20010904/DTD/svg10.dtd">
<svg version="1.0" xmlns="http://www.w3.org/2000/svg"
 width="516.000000pt" height="516.000000pt" viewBox="0 0 516.000000 516.000000"
 preserveAspectRatio="xMidYMid meet">
<metadata>
Created by potrace 1.14, written by Peter Selinger 2001-2017
</metadata>
<g transform="translate(0.000000,516.000000) scale(0.100000,-0.100000)"
fill="#000000" stroke="none">
<path d="M2399 5156 c-2 -2 -35 -6 -74 -10 -38 -3 -81 -8 -95 -10 -14 -3 -43
-7 -65 -10 -37 -5 -50 -7 -110 -20 -365 -76 -747 -250 -1040 -475 -161 -123
-340 -298 -446 -436 -13 -16 -28 -35 -34 -42 -5 -6 -26 -35 -45 -63 -19 -28
-44 -64 -56 -78 -30 -38 -112 -181 -165 -287 -78 -155 -181 -443 -203 -570 -3
-16 -10 -45 -15 -63 -5 -18 -10 -36 -10 -40 -1 -10 -12 -93 -17 -122 -20 -118
-26 -477 -11 -610 12 -103 17 -143 22 -170 3 -14 8 -38 11 -55 18 -105 75
-307 124 -435 37 -98 159 -353 172 -358 4 -2 8 -8 8 -13 0 -15 89 -152 166
-255 106 -142 185 -227 379 -409 40 -38 220 -171 304 -224 280 -179 654 -321
966 -367 22 -3 51 -8 65 -10 75 -13 195 -19 355 -19 206 0 290 7 442 36 59 11
122 22 138 25 45 9 251 72 325 100 319 123 580 283 829 509 464 422 767 1024
828 1645 15 147 8 505 -11 620 -3 14 -7 41 -10 60 -7 46 -13 75 -26 131 -6 26
-13 53 -14 60 -18 91 -68 241 -129 389 -37 89 -143 298 -163 321 -8 8 -14 19
-14 24 0 7 -87 142 -100 155 -3 3 -25 32 -50 65 -24 33 -49 65 -55 71 -5 6
-35 40 -65 74 -75 87 -175 185 -280 275 -60 51 -250 184 -338 236 -287 169
-638 292 -957 334 -27 4 -61 9 -75 11 -30 5 -456 14 -461 10z"/>
</g>
</svg>
